<svg width="1176" height="234" viewBox="0 0 1176 234" fill="none" xmlns="http://www.w3.org/2000/svg">
<g filter="url(#filter0_d_25_32)">
<path d="M7.59531 48C2.66198 48 0.195313 45.6 0.195313 40.8C0.195313 38.9333 1.59531 37.4 4.39531 36.2C7.19531 34.8667 10.862 33.8 15.3953 33C20.062 32.0667 24.9953 31.4 30.1953 31C35.5286 30.6 40.662 30.3333 45.5953 30.2C50.5286 29.9333 54.862 29.8 58.5953 29.8C62.3286 29.6667 64.7953 29.6 65.9953 29.6H76.9953C87.262 29.6 97.662 29.8 108.195 30.2C118.729 30.6 128.862 31.7333 138.595 33.6C139.129 33.7333 140.062 34 141.395 34.4C142.862 34.6667 144.195 35.1333 145.395 35.8C146.729 36.3333 147.395 37.0667 147.395 38C147.395 38.6667 146.795 39.1333 145.595 39.4C144.529 39.5333 143.595 39.6 142.795 39.6C141.062 39.6 139.262 39.4667 137.395 39.2C135.529 38.9333 133.662 38.6667 131.795 38.4C126.329 37.4667 120.662 36.9333 114.795 36.8C109.062 36.6667 103.329 36.6 97.5953 36.6C87.462 36.6 77.262 36.8 66.9953 37.2C56.7286 37.4667 46.5286 38.2 36.3953 39.4C36.1286 40.4667 34.7286 41.5333 32.1953 42.6C29.662 43.6667 26.662 44.6 23.1953 45.4C19.862 46.2 16.662 46.8667 13.5953 47.4C10.662 47.8 8.66198 48 7.59531 48ZM23.7953 162C20.862 162 18.7953 160.933 17.5953 158.8C16.3953 156.8 15.7953 154.4 15.7953 151.6C15.7953 147.067 16.7953 141.667 18.7953 135.4C20.7953 129 23.3953 122.267 26.5953 115.2C29.7953 108 33.1953 100.933 36.7953 94C40.3953 86.9333 43.7953 80.5333 46.9953 74.8C50.1953 68.9333 52.862 64.2 54.9953 60.6C56.5953 57.8 58.262 54.8 59.9953 51.6C61.7286 48.2667 63.5953 45.3333 65.5953 42.8C66.262 41.8667 67.3953 41.2667 68.9953 41C70.5953 40.7333 71.862 40.6 72.7953 40.6C73.862 40.6 75.062 40.8 76.3953 41.2C77.7287 41.6 78.462 42.5333 78.5953 44C78.5953 45.0667 78.3286 46.1333 77.7953 47.2C77.3953 48.1333 76.9286 49 76.3953 49.8C70.3953 59.5333 64.3953 68.8667 58.3953 77.8C52.3953 86.7333 46.7953 96.3333 41.5953 106.6C40.5286 108.733 38.9286 111.733 36.7953 115.6C34.662 119.333 32.462 123.467 30.1953 128C28.062 132.533 26.1953 137 24.5953 141.4C23.1286 145.8 22.3953 149.667 22.3953 153C22.3953 153.533 22.462 154.4 22.5953 155.6C22.862 156.8 23.5953 157.4 24.7953 157.4C25.462 157.4 25.7953 158 25.7953 159.2C25.7953 159.867 25.5953 160.467 25.1953 161C24.9286 161.667 24.462 162 23.7953 162ZM112.666 151.2C110.666 151.2 108.332 150.533 105.666 149.2C102.999 147.867 101.666 146.067 101.666 143.8C101.666 141.8 102.399 139.267 103.866 136.2C105.332 133.133 107.132 129.867 109.266 126.4C111.399 122.933 113.599 119.6 115.866 116.4C118.132 113.067 120.066 110.267 121.666 108C123.399 105.6 124.466 104 124.866 103.2C126.732 100.667 127.866 99.0667 128.266 98.4C128.666 97.7333 128.932 97.2 129.066 96.8C127.999 97.6 126.332 98.8667 124.066 100.6C121.799 102.2 119.532 103.867 117.266 105.6C114.999 107.333 113.332 108.667 112.266 109.6C104.799 116.133 98.5323 122.4 93.4656 128.4C88.5323 134.267 83.9323 140.533 79.6656 147.2C79.5323 147.333 79.199 147.467 78.6656 147.6C78.1323 147.6 77.7323 147.6 77.4656 147.6C76.6656 147.6 75.4656 147.4 73.8656 147C72.399 146.6 71.799 145.733 72.0656 144.4C72.8656 142.4 73.9323 140.267 75.2656 138C76.599 135.733 78.4656 132.667 80.8656 128.8C83.2656 124.8 86.399 119.2 90.2656 112C91.4656 109.733 93.4656 106 96.2656 100.8C99.199 95.6 102.732 89.6667 106.866 83C111.132 76.3333 115.866 69.7333 121.066 63.2C126.399 56.5333 132.132 50.6 138.266 45.4C144.399 40.2 150.799 36.4667 157.466 34.2C159.199 33.5333 160.732 33.2 162.066 33.2C164.599 33.2 166.332 34.0667 167.266 35.8C168.332 37.4 169.732 38.7333 171.466 39.8C172.532 40.4667 173.066 41.5333 173.066 43C173.066 45.1333 171.266 48.0667 167.666 51.8C164.199 55.4 159.732 59.4 154.266 63.8C148.799 68.0667 143.066 72.3333 137.066 76.6C131.066 80.8667 125.399 84.8 120.066 88.4C114.866 92 110.866 94.8 108.066 96.8C107.532 97.8667 106.466 99.6 104.866 102C103.399 104.267 101.799 106.733 100.066 109.4C98.3323 112.067 96.7323 114.533 95.2656 116.8C93.799 119.067 92.8656 120.667 92.4656 121.6C96.199 118.133 100.132 114.467 104.266 110.6C108.532 106.733 112.666 103 116.666 99.4C120.799 95.8 124.399 92.7333 127.466 90.2C128.132 89.6667 128.932 89.3333 129.866 89.2C130.932 89.0667 131.799 89 132.466 89C134.332 89 136.532 89.8 139.066 91.4C141.599 93 142.866 94.9333 142.866 97.2C142.866 98.6667 142.066 100.133 140.466 101.6C136.466 105.2 132.399 109.4 128.266 114.2C124.132 118.867 120.399 123.8 117.066 129C116.132 130.6 114.799 132.933 113.066 136C111.466 139.067 110.666 141.533 110.666 143.4C110.666 144.733 111.066 145.4 111.866 145.4C113.466 145.4 115.666 144.533 118.466 142.8C121.399 141.067 124.532 138.867 127.866 136.2C131.332 133.4 134.732 130.533 138.066 127.6C141.532 124.667 144.599 121.933 147.266 119.4C149.932 116.867 151.866 114.933 153.066 113.6C153.866 112.8 154.532 112.4 155.066 112.4C155.866 112.4 156.266 112.8 156.266 113.6C156.266 114 155.999 114.6 155.466 115.4C153.732 117.667 151.199 120.533 147.866 124C144.532 127.333 140.866 130.8 136.866 134.4C132.866 137.867 128.999 141.067 125.266 144C121.666 146.8 118.666 148.933 116.266 150.4C115.332 150.933 114.132 151.2 112.666 151.2ZM112.266 89C113.332 88.2 115.132 86.9333 117.666 85.2C120.332 83.3333 123.266 81.2667 126.466 79C129.799 76.6 133.066 74.2667 136.266 72C139.466 69.6 142.132 67.4667 144.266 65.6C148.532 61.8667 152.066 58.8 154.866 56.4C157.799 54 160.332 51.2 162.466 48C162.999 47.3333 163.332 46.7333 163.466 46.2C163.599 45.6667 163.666 45.2 163.666 44.8C163.666 44 163.266 43.4 162.466 43C161.799 42.6 160.932 42.4 159.866 42.4C157.866 42.4 155.266 43.4667 152.066 45.6C148.866 47.7333 145.399 50.6 141.666 54.2C137.932 57.6667 134.199 61.4667 130.466 65.6C126.732 69.7333 123.266 73.8667 120.066 78C116.866 82 114.266 85.6667 112.266 89ZM183.039 150.8C181.839 150.8 180.439 150.267 178.839 149.2C177.372 148.133 176.106 146.933 175.039 145.6C173.972 144.133 173.439 142.8 173.439 141.6C173.439 139.6 174.172 136.933 175.639 133.6C177.106 130.133 178.772 126.733 180.639 123.4C182.639 120.067 184.172 117.6 185.239 116C183.372 117.6 180.972 120.2 178.039 123.8C175.239 127.267 172.172 131 168.839 135C165.639 138.867 162.506 142.2 159.439 145C156.506 147.8 153.972 149.2 151.839 149.2C148.906 149.2 146.506 148.2 144.639 146.2C142.906 144.067 142.039 141.533 142.039 138.6C142.039 134.6 143.172 130.333 145.439 125.8C147.706 121.133 150.639 116.667 154.239 112.4C157.972 108 161.972 104 166.239 100.4C170.639 96.8 174.906 93.9333 179.039 91.8C183.306 89.6667 187.106 88.6 190.439 88.6C194.039 88.6 196.972 89.4667 199.239 91.2C201.506 92.8 202.639 95.2667 202.639 98.6C202.639 99.1333 202.506 100.133 202.239 101.6C202.106 103.067 201.639 103.8 200.839 103.8C200.439 103.8 199.772 103.2 198.839 102C198.039 100.8 196.906 99.6 195.439 98.4C193.972 97.2 192.106 96.6 189.839 96.6C186.106 96.6 182.172 98 178.039 100.8C174.039 103.467 170.172 106.933 166.439 111.2C162.706 115.333 159.439 119.6 156.639 124C153.839 128.4 151.706 132.2 150.239 135.4C149.839 136.333 149.439 137.333 149.039 138.4C148.772 139.467 148.639 140.533 148.639 141.6C148.639 142.8 148.972 143.4 149.639 143.4C150.306 143.4 151.706 142.667 153.839 141.2C156.106 139.733 157.706 138.667 158.639 138C163.306 134.667 167.706 130.867 171.839 126.6C176.106 122.333 179.906 117.933 183.239 113.4C184.306 111.933 185.306 110.467 186.239 109C187.172 107.533 188.106 106.133 189.039 104.8C189.706 103.867 190.372 103.4 191.039 103.4C192.506 103.4 193.906 104.4 195.239 106.4C196.706 108.4 197.439 110.133 197.439 111.6C197.439 112.267 197.306 112.667 197.039 112.8C196.906 112.933 196.506 113.333 195.839 114C193.839 116 191.839 118.8 189.839 122.4C187.972 126 186.306 129.667 184.839 133.4C183.506 137 182.506 140.067 181.839 142.6C181.706 143 181.572 143.533 181.439 144.2C181.439 144.733 181.772 144.933 182.439 144.8C183.772 144.4 185.906 142.933 188.839 140.4C191.906 137.733 195.172 134.733 198.639 131.4C202.239 127.933 205.439 124.733 208.239 121.8C211.172 118.867 213.106 116.8 214.039 115.6C214.306 115.333 214.572 115.067 214.839 114.8C215.239 114.4 215.639 114.2 216.039 114.2C216.972 114.2 217.439 114.667 217.439 115.6C217.439 116.133 216.372 117.733 214.239 120.4C212.106 122.933 209.439 125.933 206.239 129.4C203.039 132.733 199.772 136.067 196.439 139.4C193.106 142.6 190.172 145.333 187.639 147.6C185.239 149.733 183.706 150.8 183.039 150.8ZM249.93 151.2C247.93 151.2 245.663 150.6 243.13 149.4C240.73 148.333 239.53 146.6 239.53 144.2C239.53 141.4 240.596 138.067 242.73 134.2C244.863 130.333 247.396 126.333 250.33 122.2C253.263 117.933 256.063 113.867 258.73 110C261.53 106.133 263.53 102.867 264.73 100.2C263.93 100.6 262.596 101.4 260.73 102.6C258.996 103.667 257.263 104.8 255.53 106C253.796 107.067 252.53 107.933 251.73 108.6C245.996 112.867 240.996 117.267 236.73 121.8C232.596 126.333 228.396 131.533 224.13 137.4C223.063 139 221.93 140.667 220.73 142.4C219.663 144.133 218.53 145.8 217.33 147.4C216.796 148.067 215.863 148.733 214.53 149.4C213.33 150.067 212.196 150.4 211.13 150.4C209.396 150.4 208.53 149.467 208.53 147.6C208.53 146 209.33 143.533 210.93 140.2C212.663 136.867 214.796 133.067 217.33 128.8C219.863 124.533 222.53 120.333 225.33 116.2C228.13 111.933 230.663 108.133 232.93 104.8C235.196 101.333 236.796 98.8667 237.73 97.4C237.463 97.8 236.73 98.5333 235.53 99.6C234.33 100.533 233.13 101.533 231.93 102.6C230.863 103.533 230.063 104.2 229.53 104.6C226.996 107 224.53 109.467 222.13 112C219.73 114.533 217.33 117.067 214.93 119.6C214.663 119.867 214.13 120.267 213.33 120.8C212.663 121.333 212.063 121.6 211.53 121.6C210.863 121.6 210.53 121.267 210.53 120.6C210.53 119.933 211.463 118.533 213.33 116.4C215.196 114.267 217.53 111.733 220.33 108.8C223.13 105.867 225.996 102.867 228.93 99.8C231.996 96.7333 234.663 94 236.93 91.6C239.196 89.2 240.73 87.5333 241.53 86.6C242.863 84.8667 244.263 83.4667 245.73 82.4C247.33 81.3333 249.196 80.8 251.33 80.8C252.53 80.8 253.996 81.4 255.73 82.6C257.463 83.6667 258.33 84.9333 258.33 86.4C258.33 86.9333 258.196 87.2667 257.93 87.4C253.93 90.7333 249.996 94.6667 246.13 99.2C242.396 103.733 238.863 108.4 235.53 113.2C232.196 118 229.13 122.467 226.33 126.6C229.53 123 233.13 119.467 237.13 116C241.13 112.4 244.996 109.067 248.73 106L262.93 94.4C263.863 93.6 264.796 92.7333 265.73 91.8C266.796 90.8667 267.796 90.0667 268.73 89.4C269.796 88.7333 270.93 88.4667 272.13 88.6C273.463 88.6 274.796 88.6 276.13 88.6C277.596 88.6 278.996 89 280.33 89.8C281.796 90.6 282.53 91.8667 282.53 93.6C282.53 95.3333 282.063 96.6667 281.13 97.6C280.33 98.4 279.396 99.3333 278.33 100.4C276.063 102.533 273.263 105.333 269.93 108.8C266.73 112.267 263.53 116 260.33 120C257.13 124 254.463 128.067 252.33 132.2C250.196 136.2 249.13 139.933 249.13 143.4C249.13 143.8 249.13 144.2 249.13 144.6C249.13 145 249.196 145.4 249.33 145.8C252.13 144.733 255.196 143 258.53 140.6C261.996 138.067 265.463 135.267 268.93 132.2C272.396 129.133 275.596 126.067 278.53 123C281.596 119.933 284.13 117.2 286.13 114.8C286.396 114.533 286.663 114.2 286.93 113.8C287.33 113.4 287.796 113.2 288.33 113.2C288.996 113.2 289.33 113.667 289.33 114.6C289.33 115.133 289.13 115.733 288.73 116.4C286.196 119.733 282.796 123.667 278.53 128.2C274.263 132.733 269.863 137.067 265.33 141.2C260.796 145.2 256.73 148.267 253.13 150.4C252.196 150.933 251.13 151.2 249.93 151.2ZM322.214 152.2C316.081 152.2 311.814 150.2 309.414 146.2C307.014 142.2 305.814 137.333 305.814 131.6C305.814 128.4 306.081 125.133 306.614 121.8C307.147 118.333 307.814 114.933 308.614 111.6C307.014 112.533 305.081 114 302.814 116C300.547 118 297.947 120.533 295.014 123.6C292.747 128.133 290.747 132.533 289.014 136.8C287.281 140.933 285.347 144.733 283.214 148.2C282.814 148.733 282.281 149.067 281.614 149.2C280.947 149.333 280.281 149.4 279.614 149.4C276.814 149.4 275.414 148.133 275.414 145.6C275.414 142.667 276.881 139.867 279.814 137.2L294.214 111.6C293.014 112.533 291.881 113.533 290.814 114.6C289.747 115.667 288.547 116.8 287.214 118C286.681 118.533 286.081 118.8 285.414 118.8C284.881 118.8 284.614 118.533 284.614 118C284.614 117.467 284.947 116.733 285.614 115.8C288.681 111.933 292.414 107.667 296.814 103C301.347 98.2 306.281 91.7333 311.614 83.6C313.347 80.9333 315.814 77.6 319.014 73.6C322.214 69.6 325.681 65.3333 329.414 60.8C333.281 56.2667 337.147 52 341.014 48C344.881 43.8667 348.281 40.4 351.214 37.6C352.681 36.4 353.947 35.4 355.014 34.6C356.081 33.8 356.881 33.3333 357.414 33.2C358.614 33.2 359.747 33.8667 360.814 35.2C361.881 36.5333 362.481 37.9333 362.614 39.4C362.614 40.8667 362.081 41.8667 361.014 42.4C359.414 43.7333 357.881 44.9333 356.414 46C355.081 47.0667 353.681 48.2667 352.214 49.6C348.614 52.8 344.614 56.7333 340.214 61.4C335.814 66.0667 331.347 71.0667 326.814 76.4C322.414 81.7333 318.147 87.1333 314.014 92.6C310.014 97.9333 306.481 103 303.414 107.8C303.681 108.067 303.947 108.2 304.214 108.2C304.614 108.2 305.081 108 305.614 107.6C306.281 107.067 307.081 106.4 308.014 105.6C312.681 101.6 317.747 97.5333 323.214 93.4C328.681 89.1333 333.947 85.2667 339.014 81.8C340.481 80.8667 341.947 80.0667 343.414 79.4C345.014 78.6 346.681 78.2 348.414 78.2C349.481 78.2 350.481 78.4 351.414 78.8C352.481 79.0667 353.281 79.6 353.814 80.4C355.147 80.8 356.414 81.4667 357.614 82.4C358.947 83.3333 359.614 84.6 359.614 86.2C359.614 88.2 358.614 90.1333 356.614 92C354.614 93.7333 352.881 95.1333 351.414 96.2C346.881 99.1333 341.547 101.667 335.414 103.8C329.414 105.8 323.547 107.333 317.814 108.4C316.881 112.533 316.014 116.8 315.214 121.2C314.547 125.467 314.214 129.4 314.214 133C314.214 136.733 314.681 139.8 315.614 142.2C316.547 144.6 318.281 145.8 320.814 145.8C322.281 145.8 324.081 145.133 326.214 143.8C328.481 142.333 330.747 140.667 333.014 138.8C335.414 136.8 337.547 134.867 339.414 133C341.414 131.133 342.947 129.733 344.014 128.8C345.214 127.733 346.947 126.133 349.214 124C351.481 121.867 353.681 119.733 355.814 117.6C358.081 115.467 359.614 113.933 360.414 113C360.547 112.867 360.747 112.8 361.014 112.8C361.681 112.8 362.014 113.267 362.014 114.2C362.014 115.267 361.214 116.667 359.614 118.4L356.214 122.2C350.747 128.333 345.347 134.2 340.014 139.8C334.814 145.267 330.214 149.067 326.214 151.2C324.881 151.867 323.547 152.2 322.214 152.2ZM319.214 103.2C320.681 102.933 322.947 102.333 326.014 101.4C329.081 100.467 332.214 99.2667 335.414 97.8C338.747 96.3333 341.614 94.8 344.014 93.2C346.547 91.4667 348.014 89.7333 348.414 88C348.014 87.0667 347.281 86.6 346.214 86.6C345.281 86.6 343.547 87.3333 341.014 88.8C338.481 90.1333 335.747 91.8 332.814 93.8C329.881 95.6667 327.147 97.5333 324.614 99.4C322.081 101.133 320.281 102.4 319.214 103.2ZM380.68 157.4C379.08 157.4 377.413 157 375.68 156.2C374.08 155.533 372.48 154.6 370.88 153.4C369.146 151.933 367.48 149.867 365.88 147.2C364.28 144.533 362.946 141.733 361.88 138.8L346.48 155.6C346.08 156 345.813 156.2 345.68 156.2C345.146 156.2 344.88 155.8 344.88 155C344.88 153.8 345.28 152.8 346.08 152L360.88 135.2C360.48 133.6 360.28 132.067 360.28 130.6C359.346 129.933 358.08 129.133 356.48 128.2C355.013 127.133 354.28 125.4 354.28 123C354.28 120.2 355.146 117.467 356.88 114.8C358.613 112.133 360.08 110.8 361.28 110.8C362.213 110.8 362.68 111.6 362.68 113.2C362.68 113.733 362.68 115.133 362.68 117.4C362.813 119.667 362.946 122 363.08 124.4C363.213 126.667 363.346 128.2 363.48 129C364.28 129.533 364.946 129.867 365.48 130C370.68 124 376.146 117.8 381.88 111.4C387.613 105 392.746 99.5333 397.28 95C399.546 91.5333 402.013 88.6 404.68 86.2C407.48 83.8 410.68 82.6 414.28 82.6C416.813 82.6 418.613 83.0667 419.68 84C420.746 84.9333 421.28 86 421.28 87.2C421.28 88.4 420.746 89.5333 419.68 90.6C418.746 91.5333 417.346 92 415.48 92C412.546 91.8667 410.013 92 407.88 92.4C405.746 92.6667 404.213 93.6 403.28 95.2C402.346 96.9333 401.28 99.8 400.08 103.8C398.88 107.8 397.68 112.333 396.48 117.4C395.413 122.467 394.48 127.4 393.68 132.2C396.48 131.667 399.146 131 401.68 130.2C404.346 129.267 407.213 127.733 410.28 125.6C413.346 123.467 416.88 120.333 420.88 116.2C421.546 115.4 422.213 115 422.88 115C423.28 115 423.48 115.267 423.48 115.8C423.48 116.067 423.346 116.533 423.08 117.2C422.813 117.867 422.28 118.733 421.48 119.8C419.88 121.933 417.88 124.067 415.48 126.2C413.213 128.2 411.213 129.733 409.48 130.8C405.88 132.933 402.48 134.267 399.28 134.8C396.08 135.2 394.013 135.467 393.08 135.6C392.546 138.4 392.08 140.733 391.68 142.6C391.28 144.333 391.013 145.6 390.88 146.4C390.213 150.267 388.88 153.067 386.88 154.8C385.013 156.533 382.946 157.4 380.68 157.4ZM385.28 132.2C385.946 129.133 386.813 125.067 387.88 120C389.08 114.933 390.68 109.867 392.68 104.8C389.213 108.667 385.346 112.867 381.08 117.4C376.946 121.933 372.88 126.467 368.88 131C371.413 131.533 374.146 131.933 377.08 132.2C380.013 132.333 382.746 132.333 385.28 132.2ZM377.68 147.8C378.746 147.8 379.813 147.067 380.88 145.6C382.08 144 383.213 141.067 384.28 136.8C384.28 136.4 384.346 136.133 384.48 136C381.28 135.867 378.146 135.667 375.08 135.4C372.146 135 369.346 134.333 366.68 133.4L365.08 135.2C366.146 137.333 367.413 139.533 368.88 141.8C370.346 143.933 372.013 145.467 373.88 146.4C374.546 146.8 375.213 147.133 375.88 147.4C376.546 147.667 377.146 147.8 377.68 147.8ZM444.628 223.8C432.095 223.8 425.828 217.067 425.828 203.6C425.828 197.867 427.028 190.8 429.428 182.4C431.161 176.8 433.761 170.533 437.228 163.6C440.561 156.667 444.428 149.467 448.828 142C453.361 134.533 458.095 127.067 463.028 119.6C468.095 112 473.095 104.733 478.028 97.8C475.761 98.6 473.228 99.4667 470.428 100.4C467.628 101.333 465.495 101.8 464.028 101.8C463.361 101.533 462.895 101.067 462.628 100.4C462.495 99.6 462.428 98.8667 462.428 98.2C462.428 96.4667 462.828 94.7333 463.628 93C464.561 91.2667 465.895 90.3333 467.628 90.2C469.761 89.9333 472.428 89.6667 475.628 89.4C478.828 89 481.828 88.6667 484.628 88.4L487.628 84.4C490.161 80.8 493.428 76.2667 497.428 70.8C501.561 65.3333 506.161 59.4667 511.228 53.2C516.295 46.8 521.695 40.4667 527.428 34.2C533.161 27.9333 538.961 22.2667 544.828 17.2C550.828 12 556.695 7.86666 562.428 4.8C568.161 1.73333 573.561 0.199996 578.628 0.199996C582.228 0.199996 584.761 1.8 586.228 4.99999C587.828 8.06666 588.628 11.2 588.628 14.4C588.628 18.5333 587.561 22.2 585.428 25.4C583.428 28.4667 580.828 31.3333 577.628 34C574.561 36.6667 571.361 39.3333 568.028 42C564.695 44.6667 561.761 47.6667 559.228 51C556.695 54.2 555.028 57.9333 554.228 62.2C554.095 62.7333 553.961 63.4 553.828 64.2C553.828 64.8667 553.495 64.6 552.828 63.4C551.895 62.0667 551.428 60.4 551.428 58.4C551.428 54.6667 552.961 50.4 556.028 45.6C559.228 40.8 563.028 35.9333 567.428 31C571.961 26.0667 576.228 21.6 580.228 17.6C580.895 16.9333 581.628 16.0667 582.428 15C583.228 13.8 583.628 12.7333 583.628 11.8C583.628 10.2 582.161 9.4 579.228 9.4C576.828 9.4 573.695 10.5333 569.828 12.8C566.095 15.0667 561.961 18 557.428 21.6C553.028 25.2 548.628 28.9333 544.228 32.8C539.961 36.6667 536.095 40.2667 532.628 43.6C529.295 46.8 526.828 49.2 525.228 50.8C520.295 55.6 514.695 61.3333 508.428 68C502.295 74.6667 496.695 81.2667 491.628 87.8C494.161 87.6667 497.028 87.4667 500.228 87.2C503.428 86.8 506.561 86.4667 509.628 86.2C512.828 85.9333 515.428 85.8 517.428 85.8C517.828 85.8 518.495 85.8667 519.428 86C520.361 86.1333 520.828 86.4667 520.828 87C520.828 87.5333 520.161 87.9333 518.828 88.2C517.495 88.3333 516.695 88.4667 516.428 88.6C513.761 89 511.095 89.4667 508.428 90C505.761 90.5333 503.095 91.0667 500.428 91.6C499.228 91.8667 497.161 92.4 494.228 93.2C491.428 93.8667 488.761 94.5333 486.228 95.2C485.561 96.2667 484.895 97.3333 484.228 98.4C483.561 99.3333 482.961 100.333 482.428 101.4C492.561 101.133 499.895 103.8 504.428 109.4C508.961 115 511.228 122.333 511.228 131.4C511.228 137.667 510.228 144.4 508.228 151.6C505.961 160.133 502.695 168.667 498.428 177.2C494.161 185.733 489.161 193.533 483.428 200.6C477.695 207.667 471.495 213.267 464.828 217.4C458.295 221.667 451.561 223.8 444.628 223.8ZM447.628 218.8C452.695 218.8 457.495 217.267 462.028 214.2C466.695 211.133 471.028 207.133 475.028 202.2C479.161 197.267 482.828 191.8 486.028 185.8C489.361 179.8 492.228 173.8 494.628 167.8C497.028 161.933 498.828 156.6 500.028 151.8C500.828 148.6 501.428 145.467 501.828 142.4C502.361 139.333 502.628 136.4 502.628 133.6C502.628 126.133 500.961 119.8 497.628 114.6C494.295 109.4 488.828 106.6 481.228 106.2C480.028 107.8 478.228 110.467 475.828 114.2C473.428 117.8 470.695 122 467.628 126.8C464.695 131.6 461.761 136.467 458.828 141.4C455.895 146.333 453.228 150.933 450.828 155.2C448.428 159.6 446.561 163.2 445.228 166C444.295 168.133 442.961 171.333 441.228 175.6C439.361 179.867 437.761 184.533 436.428 189.6C434.961 194.667 434.228 199.4 434.228 203.8C434.228 208.067 435.228 211.6 437.228 214.4C439.228 217.333 442.695 218.8 447.628 218.8ZM535.531 151.2C531.665 151.2 528.798 149.667 526.931 146.6C525.065 143.4 524.131 140.133 524.131 136.8C524.131 132.267 525.331 127.4 527.731 122.2C530.131 116.867 532.998 111.8 536.331 107C539.798 102.2 542.865 98.2667 545.531 95.2C546.198 94.4 547.065 94 548.131 94C549.331 94 550.531 94.4667 551.731 95.4C554.531 93.4 557.731 91.6 561.331 90C565.065 88.4 568.665 87.6 572.131 87.6C578.131 87.6 581.131 90.6667 581.131 96.8C581.131 102.667 579.665 108.067 576.731 113C573.931 117.933 570.798 122.733 567.331 127.4C566.398 128.6 565.465 129.733 564.531 130.8C563.731 131.867 562.798 132.933 561.731 134C567.598 132.4 572.731 129.733 577.131 126C581.531 122.267 585.865 118.4 590.131 114.4C590.665 113.867 591.131 113.467 591.531 113.2C592.065 112.8 592.731 112.6 593.531 112.6C594.198 112.6 594.531 113.067 594.531 114C594.531 114.133 594.331 114.467 593.931 115C593.531 115.533 593.265 115.933 593.131 116.2C588.731 121.533 583.265 126.533 576.731 131.2C570.331 135.733 563.598 138.533 556.531 139.6C553.998 142.133 550.798 144.733 546.931 147.4C543.065 149.933 539.265 151.2 535.531 151.2ZM551.131 135.4C551.665 135.4 552.131 135.4 552.531 135.4C553.065 135.4 553.598 135.333 554.131 135.2C556.798 132 559.531 128.2 562.331 123.8C565.265 119.4 567.731 114.867 569.731 110.2C571.731 105.4 572.731 101.067 572.731 97.2C572.731 94.8 571.598 93.6 569.331 93.6C567.065 93.6 564.465 94.2667 561.531 95.6C558.598 96.9333 556.131 98.3333 554.131 99.8V100.4C554.131 101.733 553.065 103.667 550.931 106.2C548.931 108.6 546.731 111.067 544.331 113.6C542.065 116.133 540.398 118.267 539.331 120C538.931 124.4 539.798 128.067 541.931 131C544.065 133.933 547.131 135.4 551.131 135.4ZM535.731 147.8C538.265 147.8 540.731 146.867 543.131 145C545.665 143.133 547.798 141.4 549.531 139.8C546.331 139.533 543.398 138.467 540.731 136.6C538.198 134.6 535.865 132.4 533.731 130C533.331 130.8 532.798 132.333 532.131 134.6C531.465 136.867 531.131 139.133 531.131 141.4C531.131 143.133 531.465 144.667 532.131 146C532.798 147.2 533.998 147.8 535.731 147.8ZM607.325 151.4C605.192 151.4 602.925 150.333 600.525 148.2C598.258 145.933 597.125 143.733 597.125 141.6C597.125 138.933 598.058 135.933 599.925 132.6C601.792 129.133 603.992 125.8 606.525 122.6C609.058 119.4 611.258 116.667 613.125 114.4C614.992 112 615.925 110.4 615.925 109.6V109.2C614.725 108.133 613.592 107.133 612.525 106.2C611.458 105.133 609.992 104.6 608.125 104.6C606.792 104.6 605.058 105.4 602.925 107C600.925 108.6 598.858 110.467 596.725 112.6C594.592 114.733 592.658 116.733 590.925 118.6C589.192 120.467 587.925 121.733 587.125 122.4C586.592 122.933 586.058 123.267 585.525 123.4C585.125 123.533 584.792 123.6 584.525 123.6C583.992 123.6 583.725 123.333 583.725 122.8C583.725 122.267 583.992 121.733 584.525 121.2C586.658 118.4 589.125 115.533 591.925 112.6C594.725 109.667 597.258 107 599.525 104.6C601.792 102.067 603.125 100.267 603.525 99.2C604.592 96.1333 605.658 93.4 606.725 91C607.925 88.6 609.792 86.3333 612.325 84.2C613.392 83.1333 614.658 82.2667 616.125 81.6C617.592 80.9333 619.058 80.6 620.525 80.6C621.858 80.6 622.925 81 623.725 81.8C624.658 82.4667 625.125 83.5333 625.125 85C625.125 86.6 624.392 88.2 622.925 89.8C621.592 91.4 619.992 92.9333 618.125 94.4C616.258 95.7333 614.592 96.9333 613.125 98C611.792 99.0667 611.192 99.9333 611.325 100.6C612.125 101.133 613.658 101.8 615.925 102.6C618.325 103.4 619.992 103.8 620.925 103.8C621.992 103.8 622.992 103.6 623.925 103.2C624.858 102.8 625.792 102.6 626.725 102.6C628.058 102.6 629.392 103 630.725 103.8C632.058 104.6 632.725 105.8 632.725 107.4C632.725 108.733 632.192 110 631.125 111.2C630.192 112.267 629.192 113.2 628.125 114C626.525 115.2 624.392 117 621.725 119.4C619.058 121.8 616.325 124.467 613.525 127.4C610.858 130.333 608.525 133.267 606.525 136.2C604.658 139 603.725 141.467 603.725 143.6C603.725 144.133 603.858 144.667 604.125 145.2C604.258 145.333 604.525 145.4 604.925 145.4C607.592 145.4 610.592 144.2 613.925 141.8C617.258 139.4 620.592 136.467 623.925 133C627.392 129.533 630.592 126.133 633.525 122.8C636.592 119.333 639.192 116.667 641.325 114.8C641.592 114.533 641.925 114.267 642.325 114C642.725 113.733 643.125 113.6 643.525 113.6C644.192 113.6 644.525 114.067 644.525 115C644.525 115.533 643.592 116.867 641.725 119C639.992 121.133 637.725 123.667 634.925 126.6C632.125 129.533 629.192 132.533 626.125 135.6C623.192 138.667 620.458 141.4 617.925 143.8C615.392 146.067 613.592 147.667 612.525 148.6C611.058 149.8 609.992 150.533 609.325 150.8C608.658 151.2 607.992 151.4 607.325 151.4ZM688.573 151C686.307 151 683.573 150.133 680.373 148.4C677.173 146.667 674.973 144.8 673.773 142.8C672.973 141.467 672.573 139.867 672.573 138C672.573 133.733 674.107 128.067 677.173 121C680.373 113.8 684.373 106.067 689.173 97.8C691.307 94.0667 694.04 89.7333 697.373 84.8C700.84 79.8667 704.707 74.8 708.973 69.6C713.24 64.2667 717.707 59.2 722.373 54.4C727.173 49.6 731.907 45.4 736.573 41.8C741.373 38.2 745.907 35.6667 750.173 34.2C751.907 33.5333 753.44 33.2 754.773 33.2C757.307 33.2 759.04 34.0667 759.973 35.8C761.04 37.4 762.44 38.7333 764.173 39.8C765.24 40.4667 765.773 41.5333 765.773 43C765.773 46.0667 764.107 49.7333 760.773 54C757.44 58.2667 753.107 62.8 747.773 67.6C742.44 72.4 736.707 77.2 730.573 82C724.44 86.6667 718.507 91 712.773 95C707.173 99 702.373 102.333 698.373 105C694.373 107.667 691.84 109.333 690.773 110C688.773 113.733 686.907 118 685.173 122.8C683.44 127.6 682.573 132.133 682.573 136.4C682.573 138 682.773 139.8 683.173 141.8C683.707 143.667 685.04 144.6 687.173 144.6C689.173 144.6 691.507 143.867 694.173 142.4C696.84 140.933 699.44 139.333 701.973 137.6C704.507 135.733 706.507 134.2 707.973 133C711.44 130.2 714.507 127.333 717.173 124.4C719.84 121.467 722.973 118.133 726.573 114.4C726.84 114.133 727.107 113.933 727.373 113.8C727.64 113.533 727.973 113.4 728.373 113.4C729.173 113.4 729.573 113.867 729.573 114.8C729.573 115.6 729.24 116.333 728.573 117C723.24 122.867 717.64 128.933 711.773 135.2C706.04 141.467 699.64 146.4 692.573 150C691.24 150.667 689.907 151 688.573 151ZM697.173 99.6C699.173 98.9333 701.973 97.3333 705.573 94.8C709.173 92.1333 713.173 89 717.573 85.4C722.107 81.8 726.64 78 731.173 74C735.84 69.8667 740.107 65.9333 743.973 62.2C747.973 58.3333 751.24 55.0667 753.773 52.4C756.44 49.6 757.973 47.6667 758.373 46.6C758.64 45.8 758.773 45.2667 758.773 45C758.773 43.9333 758.24 43.2 757.173 42.8C756.24 42.4 755.173 42.2 753.973 42.2C753.307 42.2 752.64 42.2667 751.973 42.4C751.307 42.5333 750.707 42.6667 750.173 42.8C747.907 43.6 744.907 45.6 741.173 48.8C737.44 51.8667 733.44 55.6667 729.173 60.2C724.907 64.6 720.64 69.2667 716.373 74.2C712.24 79.1333 708.44 83.8667 704.973 88.4C701.64 92.8 699.04 96.5333 697.173 99.6ZM765.453 73.6C762.386 73.6 760.853 72.4667 760.853 70.2C760.853 68.6 761.72 66.8667 763.453 65C765.186 63.1333 767.72 61.8 771.053 61C773.053 60.4667 774.653 60.2 775.853 60.2C777.186 60.0667 778.453 59.8 779.653 59.4C779.12 61.9333 777.986 64.6667 776.253 67.6C774.653 70.5333 772.52 72.3333 769.853 73C768.52 73.4 767.053 73.6 765.453 73.6ZM733.453 153.2C731.32 153.2 729.32 152.333 727.453 150.6C725.72 148.867 724.653 147 724.253 145C724.653 142.467 725.52 139.4 726.853 135.8C728.32 132.067 729.986 128.2 731.853 124.2C733.72 120.2 735.586 116.467 737.453 113C739.32 109.4 740.92 106.533 742.253 104.4C739.72 106.667 736.986 109.2 734.053 112C731.253 114.8 728.586 117.4 726.053 119.8C725.92 119.933 725.586 120.2 725.053 120.6C724.653 121 724.253 121.2 723.853 121.2C722.92 121.2 722.453 120.8 722.453 120C722.453 119.333 722.72 118.733 723.253 118.2C726.853 114.2 730.586 110.2 734.453 106.2C738.453 102.2 742.32 98.0667 746.053 93.8C747.253 92.3333 748.253 91.2 749.053 90.4C749.986 89.4667 751.386 89 753.253 89C754.053 89 755.253 89.2 756.853 89.6C758.586 89.8667 759.986 90.4 761.053 91.2C762.253 92 762.453 93 761.653 94.2C760.72 95.6667 759.12 98.0667 756.853 101.4C754.586 104.733 751.986 108.533 749.053 112.8C746.253 117.067 743.453 121.4 740.653 125.8C737.986 130.067 735.786 133.933 734.053 137.4C732.32 140.867 731.453 143.467 731.453 145.2C731.453 146 731.72 146.4 732.253 146.4C733.053 146.4 734.386 145.667 736.253 144.2C738.253 142.733 740.186 141.2 742.053 139.6C744.053 137.867 745.386 136.733 746.053 136.2C749.92 132.867 753.72 129.467 757.453 126C761.186 122.4 764.72 118.667 768.053 114.8C768.32 114.533 768.653 114.133 769.053 113.6C769.586 113.067 770.12 112.8 770.653 112.8C771.32 112.8 771.653 113.2 771.653 114C771.653 114.933 771.32 115.867 770.653 116.8C768.92 118.933 766.986 121.067 764.853 123.2C762.72 125.2 760.72 127.2 758.853 129.2C755.386 132.667 751.986 136.133 748.653 139.6C745.453 142.933 742.253 146.4 739.053 150C738.386 150.8 737.52 151.533 736.453 152.2C735.52 152.867 734.52 153.2 733.453 153.2ZM790.25 157.4C788.65 157.4 786.983 157 785.25 156.2C783.65 155.533 782.05 154.6 780.45 153.4C778.717 151.933 777.05 149.867 775.45 147.2C773.85 144.533 772.517 141.733 771.45 138.8L756.05 155.6C755.65 156 755.383 156.2 755.25 156.2C754.717 156.2 754.45 155.8 754.45 155C754.45 153.8 754.85 152.8 755.65 152L770.45 135.2C770.05 133.6 769.85 132.067 769.85 130.6C768.917 129.933 767.65 129.133 766.05 128.2C764.583 127.133 763.85 125.4 763.85 123C763.85 120.2 764.717 117.467 766.45 114.8C768.183 112.133 769.65 110.8 770.85 110.8C771.783 110.8 772.25 111.6 772.25 113.2C772.25 113.733 772.25 115.133 772.25 117.4C772.383 119.667 772.517 122 772.65 124.4C772.783 126.667 772.917 128.2 773.05 129C773.85 129.533 774.517 129.867 775.05 130C780.25 124 785.717 117.8 791.45 111.4C797.183 105 802.317 99.5333 806.85 95C809.117 91.5333 811.583 88.6 814.25 86.2C817.05 83.8 820.25 82.6 823.85 82.6C826.383 82.6 828.183 83.0667 829.25 84C830.317 84.9333 830.85 86 830.85 87.2C830.85 88.4 830.317 89.5333 829.25 90.6C828.317 91.5333 826.917 92 825.05 92C822.117 91.8667 819.583 92 817.45 92.4C815.317 92.6667 813.783 93.6 812.85 95.2C811.917 96.9333 810.85 99.8 809.65 103.8C808.45 107.8 807.25 112.333 806.05 117.4C804.983 122.467 804.05 127.4 803.25 132.2C806.05 131.667 808.717 131 811.25 130.2C813.917 129.267 816.783 127.733 819.85 125.6C822.917 123.467 826.45 120.333 830.45 116.2C831.117 115.4 831.783 115 832.45 115C832.85 115 833.05 115.267 833.05 115.8C833.05 116.067 832.917 116.533 832.65 117.2C832.383 117.867 831.85 118.733 831.05 119.8C829.45 121.933 827.45 124.067 825.05 126.2C822.783 128.2 820.783 129.733 819.05 130.8C815.45 132.933 812.05 134.267 808.85 134.8C805.65 135.2 803.583 135.467 802.65 135.6C802.117 138.4 801.65 140.733 801.25 142.6C800.85 144.333 800.583 145.6 800.45 146.4C799.783 150.267 798.45 153.067 796.45 154.8C794.583 156.533 792.517 157.4 790.25 157.4ZM794.85 132.2C795.517 129.133 796.383 125.067 797.45 120C798.65 114.933 800.25 109.867 802.25 104.8C798.783 108.667 794.917 112.867 790.65 117.4C786.517 121.933 782.45 126.467 778.45 131C780.983 131.533 783.717 131.933 786.65 132.2C789.583 132.333 792.317 132.333 794.85 132.2ZM787.25 147.8C788.317 147.8 789.383 147.067 790.45 145.6C791.65 144 792.783 141.067 793.85 136.8C793.85 136.4 793.917 136.133 794.05 136C790.85 135.867 787.717 135.667 784.65 135.4C781.717 135 778.917 134.333 776.25 133.4L774.65 135.2C775.717 137.333 776.983 139.533 778.45 141.8C779.917 143.933 781.583 145.467 783.45 146.4C784.117 146.8 784.783 147.133 785.45 147.4C786.117 147.667 786.717 147.8 787.25 147.8ZM841.322 154.2C838.922 154.2 836.855 153.4 835.122 151.8C833.522 150.2 832.255 148.267 831.322 146C830.522 143.6 830.122 141.333 830.122 139.2C830.122 137.067 830.389 135 830.922 133C831.455 130.867 832.189 128.8 833.122 126.8C834.855 122.933 836.922 118.667 839.322 114C841.855 109.2 844.522 104.333 847.322 99.4C850.255 94.3333 853.189 89.7333 856.122 85.6C853.855 86.5333 851.189 87.6 848.122 88.8C845.189 89.8667 843.255 90.4 842.322 90.4C841.789 90.2667 841.389 89.8667 841.122 89.2C840.989 88.5333 840.922 87.8667 840.922 87.2C840.922 84.4 842.255 82.5333 844.922 81.6C849.055 80.2667 854.589 79.0667 861.522 78C866.589 71.3333 872.055 64.6667 877.922 58C883.922 51.3333 889.989 46.0667 896.122 42.2C897.322 41.4 898.655 41.8 900.122 43.4C901.589 44.8667 902.389 46.4 902.522 48C902.522 49.4667 901.989 50.4667 900.922 51C895.589 54.3333 890.655 58.1333 886.122 62.4C881.589 66.5333 876.922 71.2667 872.122 76.6C874.789 76.2 877.122 75.9333 879.122 75.8C881.122 75.6667 882.389 75.6 882.922 75.6C883.322 75.6 883.989 75.6 884.922 75.6C885.855 75.4667 886.855 75.4 887.922 75.4C889.522 75.4 890.989 75.5333 892.322 75.8C893.789 76.0667 894.522 76.5333 894.522 77.2C894.522 77.7333 893.922 78.2 892.722 78.6C891.655 78.8667 890.455 79.0667 889.122 79.2C887.789 79.2 886.789 79.2667 886.122 79.4C882.122 79.9333 878.522 80.4667 875.322 81C872.255 81.5333 869.389 82.2 866.722 83C863.655 86.7333 861.255 89.8667 859.522 92.4C857.922 94.9333 856.522 97.2667 855.322 99.4C854.255 101.4 852.922 103.667 851.322 106.2C847.855 112.867 844.855 119.667 842.322 126.6C839.922 133.533 838.722 139.133 838.722 143.4C838.722 144.067 838.789 144.6 838.922 145C839.055 145.4 839.455 145.6 840.122 145.6C840.922 145.6 841.655 145.4 842.322 145C843.122 144.467 843.789 143.933 844.322 143.4C846.189 141.933 847.922 140.267 849.522 138.4C851.255 136.4 852.922 134.533 854.522 132.8C857.455 129.6 860.455 126.467 863.522 123.4C866.589 120.333 869.589 117.267 872.522 114.2C872.789 113.933 873.055 113.733 873.322 113.6C873.589 113.333 873.855 113.2 874.122 113.2C875.055 113.2 875.522 113.733 875.522 114.8C875.522 115.2 875.255 115.8 874.722 116.6C873.122 118.733 871.389 120.867 869.522 123C867.655 125 865.855 127.067 864.122 129.2C860.655 133.333 857.189 137.4 853.722 141.4C850.389 145.4 847.055 149.533 843.722 153.8C843.322 153.933 842.922 154 842.522 154C842.122 154.133 841.722 154.2 841.322 154.2ZM876.756 147.2C868.756 147.2 864.756 143.267 864.756 135.4C864.756 132.333 865.556 128.8 867.156 124.8C868.89 120.667 871.156 116.533 873.956 112.4C876.756 108.267 879.89 104.467 883.356 101C886.823 97.4 890.356 94.5333 893.956 92.4C897.69 90.1333 901.156 89 904.356 89C905.423 89 906.156 89.2667 906.556 89.8C907.09 90.2 907.49 90.9333 907.756 92C908.023 92.5333 908.223 93.1333 908.356 93.8C908.49 94.4667 908.69 95.1333 908.956 95.8C909.49 96.7333 909.956 97.6667 910.356 98.6C910.756 99.5333 910.956 100.533 910.956 101.6C910.956 102.933 910.623 104.133 909.956 105.2C909.29 106.133 908.49 107 907.556 107.8C906.223 109 904.223 110.533 901.556 112.4C898.89 114.133 895.956 115.933 892.756 117.8C889.69 119.533 886.69 121.067 883.756 122.4C880.956 123.733 878.69 124.533 876.956 124.8C875.756 126.667 874.49 129 873.156 131.8C871.956 134.467 871.356 136.933 871.356 139.2C871.356 140.4 871.623 141.467 872.156 142.4C872.823 143.333 873.823 143.8 875.156 143.8C877.29 143.8 880.09 142.8 883.556 140.8C887.156 138.667 890.89 136.133 894.756 133.2C898.623 130.133 902.156 127.2 905.356 124.4C908.69 121.467 911.156 119.2 912.756 117.6L919.156 110.8C919.956 110 920.823 109.6 921.756 109.6C922.556 109.6 922.956 109.933 922.956 110.6C922.956 111.4 921.823 113.067 919.556 115.6C917.29 118 914.556 120.733 911.356 123.8C908.29 126.733 905.423 129.467 902.756 132C900.09 134.4 898.356 135.933 897.556 136.6C894.756 139 891.556 141.4 887.956 143.8C884.356 146.067 880.623 147.2 876.756 147.2ZM880.356 119.6C881.69 118.8 883.69 117.533 886.356 115.8C889.156 114.067 892.023 112.133 894.956 110C897.89 107.867 900.356 105.733 902.356 103.6C904.49 101.467 905.556 99.6 905.556 98C905.556 97.6 905.49 97.2667 905.356 97C905.223 96.8667 904.956 96.8 904.556 96.8C902.823 96.8 900.756 97.7333 898.356 99.6C895.956 101.467 893.556 103.733 891.156 106.4C888.756 108.933 886.556 111.467 884.556 114C882.69 116.4 881.29 118.267 880.356 119.6ZM950.711 151.2C948.711 151.2 946.444 150.6 943.911 149.4C941.511 148.333 940.311 146.6 940.311 144.2C940.311 141.4 941.378 138.067 943.511 134.2C945.644 130.333 948.178 126.333 951.111 122.2C954.044 117.933 956.844 113.867 959.511 110C962.311 106.133 964.311 102.867 965.511 100.2C964.711 100.6 963.378 101.4 961.511 102.6C959.778 103.667 958.044 104.8 956.311 106C954.578 107.067 953.311 107.933 952.511 108.6C946.778 112.867 941.778 117.267 937.511 121.8C933.378 126.333 929.178 131.533 924.911 137.4C923.844 139 922.711 140.667 921.511 142.4C920.444 144.133 919.311 145.8 918.111 147.4C917.578 148.067 916.644 148.733 915.311 149.4C914.111 150.067 912.978 150.4 911.911 150.4C910.178 150.4 909.311 149.467 909.311 147.6C909.311 146 910.111 143.533 911.711 140.2C913.444 136.867 915.578 133.067 918.111 128.8C920.644 124.533 923.311 120.333 926.111 116.2C928.911 111.933 931.444 108.133 933.711 104.8C935.978 101.333 937.578 98.8667 938.511 97.4C938.244 97.8 937.511 98.5333 936.311 99.6C935.111 100.533 933.911 101.533 932.711 102.6C931.644 103.533 930.844 104.2 930.311 104.6C927.778 107 925.311 109.467 922.911 112C920.511 114.533 918.111 117.067 915.711 119.6C915.444 119.867 914.911 120.267 914.111 120.8C913.444 121.333 912.844 121.6 912.311 121.6C911.644 121.6 911.311 121.267 911.311 120.6C911.311 119.933 912.244 118.533 914.111 116.4C915.978 114.267 918.311 111.733 921.111 108.8C923.911 105.867 926.778 102.867 929.711 99.8C932.778 96.7333 935.444 94 937.711 91.6C939.978 89.2 941.511 87.5333 942.311 86.6C943.644 84.8667 945.044 83.4667 946.511 82.4C948.111 81.3333 949.978 80.8 952.111 80.8C953.311 80.8 954.778 81.4 956.511 82.6C958.244 83.6667 959.111 84.9333 959.111 86.4C959.111 86.9333 958.978 87.2667 958.711 87.4C954.711 90.7333 950.778 94.6667 946.911 99.2C943.178 103.733 939.644 108.4 936.311 113.2C932.978 118 929.911 122.467 927.111 126.6C930.311 123 933.911 119.467 937.911 116C941.911 112.4 945.778 109.067 949.511 106L963.711 94.4C964.644 93.6 965.578 92.7333 966.511 91.8C967.578 90.8667 968.578 90.0667 969.511 89.4C970.578 88.7333 971.711 88.4667 972.911 88.6C974.244 88.6 975.578 88.6 976.911 88.6C978.378 88.6 979.778 89 981.111 89.8C982.578 90.6 983.311 91.8667 983.311 93.6C983.311 95.3333 982.844 96.6667 981.911 97.6C981.111 98.4 980.178 99.3333 979.111 100.4C976.844 102.533 974.044 105.333 970.711 108.8C967.511 112.267 964.311 116 961.111 120C957.911 124 955.244 128.067 953.111 132.2C950.978 136.2 949.911 139.933 949.911 143.4C949.911 143.8 949.911 144.2 949.911 144.6C949.911 145 949.978 145.4 950.111 145.8C952.911 144.733 955.978 143 959.311 140.6C962.778 138.067 966.244 135.267 969.711 132.2C973.178 129.133 976.378 126.067 979.311 123C982.378 119.933 984.911 117.2 986.911 114.8C987.178 114.533 987.444 114.2 987.711 113.8C988.111 113.4 988.578 113.2 989.111 113.2C989.778 113.2 990.111 113.667 990.111 114.6C990.111 115.133 989.911 115.733 989.511 116.4C986.978 119.733 983.578 123.667 979.311 128.2C975.044 132.733 970.644 137.067 966.111 141.2C961.578 145.2 957.511 148.267 953.911 150.4C952.978 150.933 951.911 151.2 950.711 151.2ZM1026.2 73.6C1023.13 73.6 1021.6 72.4667 1021.6 70.2C1021.6 68.6 1022.46 66.8667 1024.2 65C1025.93 63.1333 1028.46 61.8 1031.8 61C1033.8 60.4667 1035.4 60.2 1036.6 60.2C1037.93 60.0667 1039.2 59.8 1040.4 59.4C1039.86 61.9333 1038.73 64.6667 1037 67.6C1035.4 70.5333 1033.26 72.3333 1030.6 73C1029.26 73.4 1027.8 73.6 1026.2 73.6ZM994.195 153.2C992.062 153.2 990.062 152.333 988.195 150.6C986.462 148.867 985.395 147 984.995 145C985.395 142.467 986.262 139.4 987.595 135.8C989.062 132.067 990.729 128.2 992.595 124.2C994.462 120.2 996.329 116.467 998.195 113C1000.06 109.4 1001.66 106.533 1003 104.4C1000.46 106.667 997.729 109.2 994.795 112C991.995 114.8 989.329 117.4 986.795 119.8C986.662 119.933 986.329 120.2 985.795 120.6C985.395 121 984.995 121.2 984.595 121.2C983.662 121.2 983.195 120.8 983.195 120C983.195 119.333 983.462 118.733 983.995 118.2C987.595 114.2 991.329 110.2 995.195 106.2C999.195 102.2 1003.06 98.0667 1006.8 93.8C1008 92.3333 1009 91.2 1009.8 90.4C1010.73 89.4667 1012.13 89 1014 89C1014.8 89 1016 89.2 1017.6 89.6C1019.33 89.8667 1020.73 90.4 1021.8 91.2C1023 92 1023.2 93 1022.4 94.2C1021.46 95.6667 1019.86 98.0667 1017.6 101.4C1015.33 104.733 1012.73 108.533 1009.8 112.8C1007 117.067 1004.2 121.4 1001.4 125.8C998.729 130.067 996.529 133.933 994.795 137.4C993.062 140.867 992.195 143.467 992.195 145.2C992.195 146 992.462 146.4 992.995 146.4C993.795 146.4 995.129 145.667 996.995 144.2C998.995 142.733 1000.93 141.2 1002.8 139.6C1004.8 137.867 1006.13 136.733 1006.8 136.2C1010.66 132.867 1014.46 129.467 1018.2 126C1021.93 122.4 1025.46 118.667 1028.8 114.8C1029.06 114.533 1029.4 114.133 1029.8 113.6C1030.33 113.067 1030.86 112.8 1031.4 112.8C1032.06 112.8 1032.4 113.2 1032.4 114C1032.4 114.933 1032.06 115.867 1031.4 116.8C1029.66 118.933 1027.73 121.067 1025.6 123.2C1023.46 125.2 1021.46 127.2 1019.6 129.2C1016.13 132.667 1012.73 136.133 1009.4 139.6C1006.2 142.933 1003 146.4 999.795 150C999.129 150.8 998.262 151.533 997.195 152.2C996.262 152.867 995.262 153.2 994.195 153.2ZM1063.99 151.2C1061.99 151.2 1059.73 150.6 1057.19 149.4C1054.79 148.333 1053.59 146.6 1053.59 144.2C1053.59 141.4 1054.66 138.067 1056.79 134.2C1058.93 130.333 1061.46 126.333 1064.39 122.2C1067.33 117.933 1070.13 113.867 1072.79 110C1075.59 106.133 1077.59 102.867 1078.79 100.2C1077.99 100.6 1076.66 101.4 1074.79 102.6C1073.06 103.667 1071.33 104.8 1069.59 106C1067.86 107.067 1066.59 107.933 1065.79 108.6C1060.06 112.867 1055.06 117.267 1050.79 121.8C1046.66 126.333 1042.46 131.533 1038.19 137.4C1037.13 139 1035.99 140.667 1034.79 142.4C1033.73 144.133 1032.59 145.8 1031.39 147.4C1030.86 148.067 1029.93 148.733 1028.59 149.4C1027.39 150.067 1026.26 150.4 1025.19 150.4C1023.46 150.4 1022.59 149.467 1022.59 147.6C1022.59 146 1023.39 143.533 1024.99 140.2C1026.73 136.867 1028.86 133.067 1031.39 128.8C1033.93 124.533 1036.59 120.333 1039.39 116.2C1042.19 111.933 1044.73 108.133 1046.99 104.8C1049.26 101.333 1050.86 98.8667 1051.79 97.4C1051.53 97.8 1050.79 98.5333 1049.59 99.6C1048.39 100.533 1047.19 101.533 1045.99 102.6C1044.93 103.533 1044.13 104.2 1043.59 104.6C1041.06 107 1038.59 109.467 1036.19 112C1033.79 114.533 1031.39 117.067 1028.99 119.6C1028.73 119.867 1028.19 120.267 1027.39 120.8C1026.73 121.333 1026.13 121.6 1025.59 121.6C1024.93 121.6 1024.59 121.267 1024.59 120.6C1024.59 119.933 1025.53 118.533 1027.39 116.4C1029.26 114.267 1031.59 111.733 1034.39 108.8C1037.19 105.867 1040.06 102.867 1042.99 99.8C1046.06 96.7333 1048.73 94 1050.99 91.6C1053.26 89.2 1054.79 87.5333 1055.59 86.6C1056.93 84.8667 1058.33 83.4667 1059.79 82.4C1061.39 81.3333 1063.26 80.8 1065.39 80.8C1066.59 80.8 1068.06 81.4 1069.79 82.6C1071.53 83.6667 1072.39 84.9333 1072.39 86.4C1072.39 86.9333 1072.26 87.2667 1071.99 87.4C1067.99 90.7333 1064.06 94.6667 1060.19 99.2C1056.46 103.733 1052.93 108.4 1049.59 113.2C1046.26 118 1043.19 122.467 1040.39 126.6C1043.59 123 1047.19 119.467 1051.19 116C1055.19 112.4 1059.06 109.067 1062.79 106L1076.99 94.4C1077.93 93.6 1078.86 92.7333 1079.79 91.8C1080.86 90.8667 1081.86 90.0667 1082.79 89.4C1083.86 88.7333 1084.99 88.4667 1086.19 88.6C1087.53 88.6 1088.86 88.6 1090.19 88.6C1091.66 88.6 1093.06 89 1094.39 89.8C1095.86 90.6 1096.59 91.8667 1096.59 93.6C1096.59 95.3333 1096.13 96.6667 1095.19 97.6C1094.39 98.4 1093.46 99.3333 1092.39 100.4C1090.13 102.533 1087.33 105.333 1083.99 108.8C1080.79 112.267 1077.59 116 1074.39 120C1071.19 124 1068.53 128.067 1066.39 132.2C1064.26 136.2 1063.19 139.933 1063.19 143.4C1063.19 143.8 1063.19 144.2 1063.19 144.6C1063.19 145 1063.26 145.4 1063.39 145.8C1066.19 144.733 1069.26 143 1072.59 140.6C1076.06 138.067 1079.53 135.267 1082.99 132.2C1086.46 129.133 1089.66 126.067 1092.59 123C1095.66 119.933 1098.19 117.2 1100.19 114.8C1100.46 114.533 1100.73 114.2 1100.99 113.8C1101.39 113.4 1101.86 113.2 1102.39 113.2C1103.06 113.2 1103.39 113.667 1103.39 114.6C1103.39 115.133 1103.19 115.733 1102.79 116.4C1100.26 119.733 1096.86 123.667 1092.59 128.2C1088.33 132.733 1083.93 137.067 1079.39 141.2C1074.86 145.2 1070.79 148.267 1067.19 150.4C1066.26 150.933 1065.19 151.2 1063.99 151.2ZM1055.28 225.6C1049.14 225.6 1046.08 222.533 1046.08 216.4C1046.08 215.733 1046.14 215.067 1046.28 214.4C1046.28 213.733 1046.34 213.067 1046.48 212.4C1047.54 207.6 1049.81 203 1053.28 198.6C1056.74 194.2 1060.81 190.067 1065.48 186.2C1070.14 182.467 1074.94 178.933 1079.88 175.6C1084.68 172.4 1089.01 169.6 1092.88 167.2C1095.14 165.733 1098.01 163.933 1101.48 161.8C1105.08 159.667 1108.88 157.333 1112.88 154.8C1116.88 152.4 1120.68 150.133 1124.28 148C1125.74 144.267 1127.01 140.133 1128.08 135.6C1129.28 131.067 1129.81 126.533 1129.68 122C1128.08 123.733 1125.94 126.133 1123.28 129.2C1120.61 132.133 1117.68 135.067 1114.48 138C1111.41 140.933 1108.28 143.467 1105.08 145.6C1102.01 147.6 1099.28 148.6 1096.88 148.6C1094.34 148.6 1092.41 147.4 1091.08 145C1089.74 142.6 1089.08 140.267 1089.08 138C1089.08 134.267 1090.14 130.2 1092.28 125.8C1094.41 121.4 1097.28 117.067 1100.88 112.8C1104.48 108.533 1108.41 104.6 1112.68 101C1116.94 97.4 1121.21 94.5333 1125.48 92.4C1129.74 90.2667 1133.68 89.2 1137.28 89.2C1140.08 89.2 1142.61 90.2 1144.88 92.2C1147.14 94.0667 1148.28 96.4667 1148.28 99.4C1148.28 100.333 1148.01 101.333 1147.48 102.4C1147.08 103.333 1146.34 103.8 1145.28 103.8C1144.34 103.8 1143.61 103.467 1143.08 102.8C1142.54 102 1141.88 101.267 1141.08 100.6C1140.28 99.8 1138.88 99.4 1136.88 99.4C1133.94 99.4 1130.74 100.4 1127.28 102.4C1123.94 104.267 1120.81 106.533 1117.88 109.2C1114.94 111.867 1112.48 114.2 1110.48 116.2C1107.94 118.867 1105.48 122.067 1103.08 125.8C1100.81 129.533 1099.01 133.133 1097.68 136.6C1097.28 137.533 1096.88 138.6 1096.48 139.8C1096.21 141 1096.08 142.133 1096.08 143.2C1096.08 144.533 1096.54 145.2 1097.48 145.2C1097.74 145.2 1098.01 145.2 1098.28 145.2C1098.54 145.067 1098.81 144.933 1099.08 144.8C1102.94 143.2 1107.01 140.333 1111.28 136.2C1115.54 132.067 1119.54 127.6 1123.28 122.8C1127.01 117.867 1130.01 113.667 1132.28 110.2L1133.08 109C1133.88 106.467 1135.61 105.2 1138.28 105.2C1139.08 105.2 1139.88 105.4 1140.68 105.8C1141.48 106.2 1141.88 106.933 1141.88 108C1141.88 113.867 1141.61 119 1141.08 123.4C1140.54 127.8 1139.28 132.8 1137.28 138.4C1139.94 136.267 1142.41 134.2 1144.68 132.2C1147.08 130.2 1149.41 128 1151.68 125.6C1153.81 123.467 1155.81 121.267 1157.68 119C1159.68 116.733 1161.74 114.6 1163.88 112.6C1164.14 112.333 1164.41 112.133 1164.68 112C1165.08 111.733 1165.48 111.6 1165.88 111.6C1166.68 111.6 1167.08 112 1167.08 112.8C1167.08 113.467 1166.08 114.933 1164.08 117.2C1162.21 119.333 1159.81 121.867 1156.88 124.8C1154.08 127.733 1151.08 130.733 1147.88 133.8C1144.81 136.733 1142.01 139.4 1139.48 141.8C1137.08 144.067 1135.41 145.6 1134.48 146.4C1128.34 162.533 1120.34 176.533 1110.48 188.4C1100.74 200.4 1088.34 210.733 1073.28 219.4C1070.74 220.867 1067.88 222.267 1064.68 223.6C1061.48 224.933 1058.34 225.6 1055.28 225.6ZM1059.88 220.6C1063.48 220.6 1067.41 219.267 1071.68 216.6C1075.81 214.067 1079.94 210.867 1084.08 207C1088.21 203.133 1091.94 199.267 1095.28 195.4C1098.74 191.667 1101.48 188.533 1103.48 186C1105.74 182.933 1107.94 179.867 1110.08 176.8C1112.21 173.867 1114.21 170.8 1116.08 167.6C1118.88 162.933 1121.21 158.4 1123.08 154C1123.21 153.6 1123.08 153.333 1122.68 153.2C1122.41 153.2 1122.28 153.2 1122.28 153.2C1118.14 156.133 1113.94 159 1109.68 161.8C1105.54 164.733 1101.34 167.6 1097.08 170.4C1094.94 171.733 1092.08 173.667 1088.48 176.2C1084.88 178.867 1081.01 181.8 1076.88 185C1072.74 188.333 1068.81 191.733 1065.08 195.2C1061.34 198.8 1058.28 202.267 1055.88 205.6C1053.48 209.067 1052.28 212.133 1052.28 214.8C1052.28 216.933 1053.14 218.4 1054.88 219.2C1056.48 220.133 1058.14 220.6 1059.88 220.6Z" fill="#32D7ED"/>
</g>
<defs>
<filter id="filter0_d_25_32" x="0.195312" y="0.200012" width="1174.88" height="233.4" filterUnits="userSpaceOnUse" color-interpolation-filters="sRGB">
<feFlood flood-opacity="0" result="BackgroundImageFix"/>
<feColorMatrix in="SourceAlpha" type="matrix" values="0 0 0 0 0 0 0 0 0 0 0 0 0 0 0 0 0 0 127 0" result="hardAlpha"/>
<feOffset dx="4" dy="4"/>
<feGaussianBlur stdDeviation="2"/>
<feComposite in2="hardAlpha" operator="out"/>
<feColorMatrix type="matrix" values="0 0 0 0 1 0 0 0 0 0.120833 0 0 0 0 0.120833 0 0 0 0.8 0"/>
<feBlend mode="normal" in2="BackgroundImageFix" result="effect1_dropShadow_25_32"/>
<feBlend mode="normal" in="SourceGraphic" in2="effect1_dropShadow_25_32" result="shape"/>
</filter>
</defs>
</svg>
